HIERARCHY
ROOT pelvis
{
  OFFSET 0 100 0
  CHANNELS 6 Xposition Yposition Zposition Zrotation Xrotation Yrotation
  JOINT pelvis_right_femur
  {
    OFFSET -10.78128 -3.44521 -0.5502486
    CHANNELS 3 Zrotation Xrotation Yrotation
    JOINT right_femur_tibia
    {
      OFFSET -0.8047443 -44.0398 -0.1307829
      CHANNELS 3 Zrotation Xrotation Yrotation
      JOINT right_tibia_foot
      {
        OFFSET 3.006224 -47.83518 -5
        CHANNELS 3 Zrotation Xrotation Yrotation
        End Site
        {
          OFFSET 0 -5 15
        }
      }
    }
  }
  JOINT pelvis_left_femur
  {
    OFFSET 10.78128 -3.44521 -0.5502486
    CHANNELS 3 Zrotation Xrotation Yrotation
    JOINT left_femur_tibia
    {
      OFFSET 0.8047443 -44.0398 -0.1307829
      CHANNELS 3 Zrotation Xrotation Yrotation
      JOINT left_tibia_foot
      {
        OFFSET -4.370144 -48.10324 -4.275266
        CHANNELS 3 Zrotation Xrotation Yrotation
        End Site
        {
          OFFSET 0 -5 15
        }
      }
    }
  }
  JOINT pelvis_spine1
  {
    OFFSET 0 6.468898 -3.129235
    CHANNELS 3 Zrotation Xrotation Yrotation
    JOINT spine1
    {
      OFFSET 0 23.15396 4.99043
      CHANNELS 3 Zrotation Xrotation Yrotation
      JOINT spine2
      {
        OFFSET 0 20.79997 -5.064912
        CHANNELS 3 Zrotation Xrotation Yrotation
        JOINT neck
        {
          OFFSET 0 14.38658 9.616178
          CHANNELS 3 Zrotation Xrotation Yrotation
          End Site
          {
            OFFSET 0 20 0
          }
        }
      }
      JOINT right_manubrium
      {
        OFFSET -5.722621 16.35077 3.967754
        CHANNELS 3 Zrotation Xrotation Yrotation
        JOINT right_clavicle
        {
          OFFSET -13.16364 1.694482 -4.693211
          CHANNELS 3 Zrotation Xrotation Yrotation
          JOINT right_humerus
          {
            OFFSET -28.5034 -0.3100689 -2.792744
            CHANNELS 3 Zrotation Xrotation Yrotation
            JOINT right_radius
            {
              OFFSET -25.15693 0.02248979 -1.271978
              CHANNELS 3 Zrotation Xrotation Yrotation
              End Site
              {
                OFFSET -15 0 0
              }
            }
          }
        }
      }
      JOINT left_manubrium
      {
        OFFSET 5.722621 16.35077 3.967754
        CHANNELS 3 Zrotation Xrotation Yrotation
        JOINT left_clavicle
        {
          OFFSET 13.16364 1.694482 -4.693211
          CHANNELS 3 Zrotation Xrotation Yrotation
          JOINT left_humerus
          {
            OFFSET 29.39168 -1.063119 -2.237045
            CHANNELS 3 Zrotation Xrotation Yrotation
            JOINT left_radius
            {
              OFFSET 24.59957 -0.9528479 0.9047498
              CHANNELS 3 Zrotation Xrotation Yrotation
              End Site
              {
                OFFSET 15 -0 -0
              }
            }
          }
        }
      }
    }
  }
}
MOTION
Frames: 15
Frame Time: 0.0416666666667
958.5181 99.19151 2979.847 4.333141 -3.462681 35.50257 -0.1118065 -26.55742 1.141733 -0 15.21761 -0 0.5776261 -3.648642 -9.483447 -5.082241 17.26613 -7.626349 -0 15.82462 -0 -5.3805 -20.49069 11.77395 -3.124893 -2.742281 0.2079573 6.270331 3.687587 -11.46033 -0.3629043 16.70466 12.88587 5.772503 -32.08641 12.77544 -0.8513229 -17.36429 11.01779 93.45771 36.73649 -25.34826 -0 0 4.330326 -9.886486 7.286847 6.820682 11.94914 -27.99517 2.458068 -77.00943 9.693464 -5.993109 0 0 -54.73359 17.96278 3.478503 -13.17009
962.1608 98.08508 2985.631 4.190735 -3.298295 35.98038 0.6558795 -26.2915 1.775839 -0 12.32071 -0 0.6267863 -3.195976 -9.791065 -4.867885 19.15593 -7.667751 -0 20.29101 -0 -6.916649 -19.69921 11.45717 -2.963806 -2.655655 0.08113732 6.242043 3.669975 -11.57637 -0.3725325 16.3523 12.96628 5.907882 -31.97397 12.72809 -0.4967878 -17.19612 10.93698 93.37947 36.94331 -25.67765 -0 0 4.290468 -9.947861 7.802644 7.064114 12.18939 -28.10757 2.322365 -76.72321 10.07415 -6.381714 0 0 -55.40616 17.71464 3.036085 -12.5365
965.8791 97.42621 2991.742 4.139854 -3.705427 36.29075 1.94785 -24.31677 3.104275 -0 12.83717 -0 0.3712616 -3.090121 -10.17792 -4.369357 19.88942 -7.805444 -0 26.67276 -0 -8.358653 -17.62159 11.67076 -2.703221 -2.52209 0.1800672 6.026047 4.07582 -11.57377 -0.3314243 16.27352 12.75366 5.851233 -31.51651 12.4705 -0.2382555 -17.12234 10.89118 93.60643 36.83607 -26.05573 -0 0 4.219096 -10.32246 8.311153 7.293864 12.06827 -28.18107 1.833818 -76.62683 10.73463 -6.080472 0 0 -55.09599 17.2154 2.792259 -11.41217
969.5873 97.38142 2998.008 4.213874 -4.663517 36.32324 3.470399 -20.95205 4.630765 -0 15.75388 -0 -0.3659806 -3.633772 -10.4669 -3.658646 19.11139 -7.899197 -0 34.50554 -0 -9.362836 -14.60811 12.48863 -2.401075 -2.35731 0.4622889 5.668552 4.786748 -11.45833 -0.2534288 16.43863 12.32542 5.649964 -30.80894 12.07084 -0.07586392 -17.12778 10.8774 94.0323 36.46323 -26.41025 -0 0 4.152271 -10.93827 8.7613 7.494263 11.65893 -28.18787 1.113073 -76.72636 11.58674 -5.226228 0 0 -53.94854 16.51725 2.711616 -9.956794
973.2007 97.96412 3004.22 4.454597 -5.961583 35.99835 4.83615 -16.74394 5.795628 -0 19.27871 -0 -1.43321 -4.809915 -10.41016 -2.969855 16.5458 -7.800019 -0 42.88401 -0 -9.644419 -11.36508 13.85441 -2.09632 -2.170003 0.8948819 5.203606 5.707013 -11.23082 -0.1459916 16.80756 11.74555 5.345613 -29.93296 11.58868 -0.004253804 -17.21408 10.89327 94.55741 35.87799 -26.66165 -0 0 4.142445 -11.7247 9.123503 7.66214 11.02204 -28.10368 0.25596 -77.02911 12.55737 -3.910313 0 0 -52.10921 15.66161 2.751969 -8.283839
976.6806 99.02538 3010.195 4.862758 -7.189597 35.34865 5.705863 -12.20253 6.371049 -0 21.51553 -0 -2.242159 -6.247199 -9.856397 -2.547675 12.10765 -7.452514 -0 50.5779 -0 -9.283989 -8.698543 15.43006 -1.810209 -1.964961 1.453463 4.654955 6.762944 -10.8903 -0.01264729 17.33597 11.06317 4.97072 -28.95635 11.0704 -0.01772622 -17.39369 10.93651 95.10005 35.13219 -26.73814 -0 0 4.246833 -12.6194 9.384141 7.803059 10.20711 -27.91016 -0.665294 -77.54277 13.58682 -2.183741 0 0 -49.70894 14.6852 2.874278 -6.47257
980.0456 100.3045 3015.832 5.34818 -7.878168 34.51736 5.885454 -7.508626 6.561319 -0 21.4201 -0 -2.164121 -7.494006 -8.875166 -2.423147 5.986114 -6.913406 -0 56.2292 -0 -8.80579 -7.153762 16.71754 -1.551289 -1.747023 2.115433 4.042393 7.891911 -10.43989 0.1437787 17.97363 10.31808 4.551738 -27.93861 10.55047 -0.1105946 -17.68174 11.00332 95.59472 34.27803 -26.5844 -0 0 4.519424 -13.56776 9.543069 7.930642 9.26186 -27.59664 -1.59249 -78.27065 14.62036 -0.0786614 0 0 -46.87484 13.62716 3.04662 -4.586422
983.3342 101.4912 3021.134 5.746375 -7.840376 33.65434 5.464803 -2.634101 6.631354 -0 19.29665 -0 -1.247066 -8.411606 -7.694927 -2.309681 -1.236068 -6.231962 -0 58.40779 -0 -8.691723 -6.76647 17.51374 -1.320621 -1.524665 2.853244 3.387912 9.033019 -9.89295 0.3183948 18.66289 9.545918 4.112049 -26.934 10.05315 -0.2756586 -18.08785 11.08669 95.99013 33.37052 -26.17028 -0 0 5.000726 -14.52207 9.612884 8.065842 8.240416 -27.16436 -2.474452 -79.20183 15.60086 2.363837 0 0 -43.74891 12.5334 3.246248 -2.687632
986.5716 102.2855 3026.178 5.885352 -7.362985 32.82563 4.852837 2.244282 6.536904 -0 16.38828 -0 -0.2949282 -9.336411 -6.481842 -1.790878 -8.543754 -5.378496 -0 55.95838 -0 -8.829549 -7.088104 18.12848 -1.116529 -1.312026 3.630608 2.719669 10.12401 -9.277607 0.5026949 19.34206 8.781039 3.672979 -25.99119 9.594389 -0.503666 -18.60947 11.17597 96.25254 32.46637 -25.49986 -0 0 5.704372 -15.44048 9.615767 8.232106 7.205308 -26.63231 -3.265725 -80.29809 16.46667 5.065441 0 0 -40.50463 11.45764 3.460581 -0.846833
989.7936 102.4963 3031.073 5.64629 -6.830047 32.02407 4.445344 6.686349 6.125146 -0 13.93535 -0 0.06670149 -10.76944 -5.233071 -0.735869 -14.91614 -4.379381 -0 49.10708 -0 -8.764765 -7.533607 18.87342 -0.9374841 -1.127536 4.402961 2.072645 11.10616 -8.636832 0.6851108 19.95428 8.056201 3.252689 -25.15161 9.184506 -0.7842468 -19.22812 11.25869 96.37416 31.61863 -24.61803 -0 0 6.603705 -16.28419 9.576585 8.445324 6.220856 -26.04092 -3.931413 -81.48521 17.15747 7.893989 0 0 -37.34896 10.45963 3.687434 0.8540069
993.0777 102.1209 3035.923 5.032773 -6.299555 31.22802 4.258533 10.34736 5.502536 -0 12.56867 -0 0.0243063 -12.77812 -3.925725 0.5301696 -19.87858 -3.428232 -0 39.90278 -0 -8.350902 -7.758297 19.60256 -0.7821092 -0.9883719 5.123684 1.484125 11.93725 -8.021586 0.8540393 20.45981 7.397864 2.863493 -24.44525 8.829695 -1.106301 -19.9102 11.32498 96.37981 30.86833 -23.60814 -0 0 7.627272 -17.01651 9.515858 8.70385 5.338774 -25.44713 -4.456339 -82.66135 17.62884 10.67751 0 0 -34.49151 9.597335 3.93474 2.331853
996.5269 101.3059 3040.843 4.23613 -5.689901 30.44534 4.023044 13.24084 4.940885 -0 12.47167 -0 0.07587073 -14.80677 -2.659639 1.49133 -23.41625 -2.81632 -0 30.96256 -0 -7.789138 -7.746761 20.05456 -0.6484451 -0.9041922 5.752949 0.9862857 12.60226 -7.479446 1.001363 20.84437 6.82118 2.510589 -23.88677 8.532232 -1.456417 -20.61177 11.37182 96.32125 30.23997 -22.57619 -0 0 8.670787 -17.60565 9.446213 8.985805 4.586412 -24.91095 -4.849133 -83.72227 17.86523 13.24259 0 0 -32.09542 8.9163 4.217816 3.519309
1000.237 100.2643 3045.936 3.576413 -5.046078 29.71685 3.468686 15.6156 4.65513 -0 13.81284 -0 0.4804385 -15.98933 -1.631779 1.72906 -25.61487 -2.812074 -0 24.18355 -0 -7.286169 -7.662751 20.198 -0.5352088 -0.8753902 6.260838 0.6034882 13.10917 -7.047983 1.123294 21.11682 6.332483 2.195211 -23.4794 8.292952 -1.816877 -21.28276 11.40422 96.26177 29.74771 -21.63276 -0 0 9.614288 -18.0246 9.370872 9.252383 3.969467 -24.48502 -5.134031 -84.58113 17.8782 15.43623 0 0 -30.25989 8.449125 4.55378 4.365029
1004.273 99.23946 3051.278 3.322791 -4.478304 29.1066 2.488529 17.54621 4.745414 -0 16.92456 -0 1.244868 -15.49768 -1.040832 1.087563 -26.48709 -3.486323 -0 20.37146 -0 -6.83925 -7.650468 20.09651 -0.4442638 -0.8957102 6.62395 0.3550904 13.47448 -6.755538 1.218625 21.30036 5.937902 1.920259 -23.22494 8.115775 -2.165676 -21.86755 11.4333 96.26299 29.40566 -20.88443 -0 0 10.33178 -18.24758 9.28188 9.451819 3.484972 -24.21319 -5.337055 -85.17101 17.69469 17.11755 0 0 -29.04111 8.224647 4.955127 4.818522
1008.65 98.49471 3056.885 3.549378 -4.043359 28.70977 1.208902 18.63072 5.155955 -0 22.18423 -0 2.25827 -12.89104 -1.016359 -0.2674801 -25.91157 -4.607707 -0 19.35926 -0 -6.258037 -7.757543 19.7125 -0.3825624 -0.9561014 6.821948 0.2582401 13.70804 -6.623201 1.286309 21.42288 5.651628 1.695027 -23.132 8.011046 -2.479263 -22.30607 11.47197 96.37369 29.23163 -20.42675 -0 0 10.70235 -18.25034 9.159284 9.525897 3.134663 -24.12989 -5.473303 -85.4429 17.34679 18.14701 0 0 -28.47641 8.273789 5.422573 4.82033
